<svg width="397" height="101" viewBox="0 0 397 101" fill="none" xmlns="http://www.w3.org/2000/svg">
<path d="M68.3947 27.3895C65.2474 24 62.1807 21.7403 59.1947 20.6105C56.2895 19.4807 53.3439 18.9158 50.3579 18.9158C45.9193 18.9158 41.8842 19.7228 38.2526 21.3368C34.7018 22.8702 31.6351 25.0491 29.0526 27.8737C26.4702 30.6175 24.4526 33.8456 23 37.5579C21.6281 41.2702 20.9421 45.2649 20.9421 49.5421C20.9421 54.1421 21.6281 58.3789 23 62.2526C24.4526 66.1263 26.4702 69.4754 29.0526 72.3C31.6351 75.1246 34.7018 77.3439 38.2526 78.9579C41.8842 80.5719 45.9193 81.3789 50.3579 81.3789C53.8281 81.3789 57.1772 80.5719 60.4053 78.9579C63.714 77.2632 66.7807 74.6 69.6053 70.9684L82.1947 79.9263C78.3211 85.2526 73.6 89.1263 68.0316 91.5474C62.4632 93.9684 56.5316 95.1789 50.2368 95.1789C43.6193 95.1789 37.5263 94.1298 31.9579 92.0316C26.4702 89.8526 21.7088 86.8263 17.6737 82.9526C13.7193 78.9982 10.6123 74.2772 8.35263 68.7895C6.09298 63.3018 4.96316 57.2088 4.96316 50.5105C4.96316 43.6509 6.09298 37.4368 8.35263 31.8684C10.6123 26.2193 13.7193 21.4175 17.6737 17.4632C21.7088 13.5088 26.4702 10.4825 31.9579 8.38421C37.5263 6.20526 43.6193 5.11579 50.2368 5.11579C56.0474 5.11579 61.414 6.16491 66.3368 8.26315C71.3404 10.2807 75.9807 13.7509 80.2579 18.6737L68.3947 27.3895ZM91.3427 1.48421H105.869V93H91.3427V1.48421ZM134.167 69.0316C134.651 73.3895 136.346 76.7789 139.251 79.2C142.156 81.6211 145.667 82.8316 149.783 82.8316C153.414 82.8316 156.441 82.1053 158.862 80.6526C161.363 79.1193 163.542 77.2228 165.399 74.9632L175.809 82.8316C172.42 87.0281 168.627 90.014 164.43 91.7895C160.234 93.5649 155.835 94.4526 151.235 94.4526C146.878 94.4526 142.762 93.7263 138.888 92.2737C135.014 90.8211 131.665 88.7632 128.841 86.1C126.016 83.4368 123.756 80.2491 122.062 76.5368C120.448 72.7439 119.641 68.5474 119.641 63.9474C119.641 59.3474 120.448 55.1912 122.062 51.4789C123.756 47.686 126.016 44.4579 128.841 41.7947C131.665 39.1316 135.014 37.0737 138.888 35.6211C142.762 34.1684 146.878 33.4421 151.235 33.4421C155.27 33.4421 158.942 34.1684 162.251 35.6211C165.641 36.993 168.506 39.0105 170.846 41.6737C173.267 44.3368 175.123 47.6456 176.414 51.6C177.786 55.4737 178.472 59.9526 178.472 65.0368V69.0316H134.167ZM163.946 58.1368C163.865 53.8596 162.534 50.5105 159.951 48.0895C157.369 45.5877 153.778 44.3368 149.178 44.3368C144.82 44.3368 141.349 45.5877 138.767 48.0895C136.265 50.5912 134.732 53.9404 134.167 58.1368H163.946ZM192.057 34.8947H206.583V44.0947H206.825C208.439 40.7053 210.739 38.0825 213.725 36.2263C216.711 34.3702 220.141 33.4421 224.015 33.4421C224.902 33.4421 225.75 33.5228 226.557 33.6842C227.444 33.8456 228.332 34.0474 229.22 34.2895V48.3316C228.009 48.0088 226.799 47.7667 225.588 47.6053C224.458 47.3632 223.329 47.2421 222.199 47.2421C218.809 47.2421 216.065 47.8877 213.967 49.1789C211.95 50.3895 210.376 51.8018 209.246 53.4158C208.197 55.0298 207.471 56.6439 207.067 58.2579C206.744 59.8719 206.583 61.0825 206.583 61.8895V93H192.057V34.8947ZM239.106 1.48421H253.633V58.9842L276.027 34.8947H294.67L269.733 61.2842L296.243 93H276.996L253.875 63.3421H253.633V93H239.106V1.48421ZM304.367 34.8947H318.893V93H304.367V34.8947ZM302.309 15.1632C302.309 12.8228 303.156 10.8053 304.851 9.11053C306.627 7.33509 308.846 6.44737 311.509 6.44737C314.172 6.44737 316.392 7.29474 318.167 8.98948C320.023 10.6035 320.951 12.6614 320.951 15.1632C320.951 17.6649 320.023 19.7632 318.167 21.4579C316.392 23.0719 314.172 23.8789 311.509 23.8789C308.846 23.8789 306.627 23.0316 304.851 21.3368C303.156 19.5614 302.309 17.5035 302.309 15.1632ZM347.191 69.0316C347.675 73.3895 349.37 76.7789 352.275 79.2C355.181 81.6211 358.691 82.8316 362.807 82.8316C366.439 82.8316 369.465 82.1053 371.886 80.6526C374.388 79.1193 376.567 77.2228 378.423 74.9632L388.833 82.8316C385.444 87.0281 381.651 90.014 377.454 91.7895C373.258 93.5649 368.86 94.4526 364.26 94.4526C359.902 94.4526 355.786 93.7263 351.912 92.2737C348.039 90.8211 344.689 88.7632 341.865 86.1C339.04 83.4368 336.781 80.2491 335.086 76.5368C333.472 72.7439 332.665 68.5474 332.665 63.9474C332.665 59.3474 333.472 55.1912 335.086 51.4789C336.781 47.686 339.04 44.4579 341.865 41.7947C344.689 39.1316 348.039 37.0737 351.912 35.6211C355.786 34.1684 359.902 33.4421 364.26 33.4421C368.295 33.4421 371.967 34.1684 375.275 35.6211C378.665 36.993 381.53 39.0105 383.87 41.6737C386.291 44.3368 388.147 47.6456 389.439 51.6C390.811 55.4737 391.496 59.9526 391.496 65.0368V69.0316H347.191ZM376.97 58.1368C376.889 53.8596 375.558 50.5105 372.975 48.0895C370.393 45.5877 366.802 44.3368 362.202 44.3368C357.844 44.3368 354.374 45.5877 351.791 48.0895C349.289 50.5912 347.756 53.9404 347.191 58.1368H376.97Z" fill="#1A1A1A"/>
</svg>
