<svg width="140" height="140" viewBox="0 0 140 140" fill="none" xmlns="http://www.w3.org/2000/svg">
<g clip-path="url(#clip0_3108_2620)">
<path fill-rule="evenodd" clip-rule="evenodd" d="M139.675 69.6123C139.675 108.183 108.146 139.45 69.6115 139.45C56.703 139.45 44.6132 135.942 34.2421 129.825C33.239 129.639 31.552 130.012 30.8177 130.227C26.861 131.143 22.113 132.447 20.2332 132.984C13.6924 134.065 10.502 133.614 8.73048 132.484C7.26444 131.549 7.61371 130.405 7.66752 130.227C7.84506 129.637 8.13182 129.37 8.70438 128.836C9.43128 128.159 10.6837 127.148 12.6939 124.406C15.3885 120.344 16.0052 115.806 15.8535 113.901C5.96628 101.849 0.03125 86.4241 0.03125 69.6123C0.03125 31.0419 31.0767 0 69.6115 0C108.146 0 139.675 31.0419 139.675 69.6123ZM69.6115 122.841C98.8398 122.841 123.017 98.8675 123.017 69.6123C123.017 40.3571 98.8398 16.6412 69.6115 16.6412C40.3833 16.6412 16.6893 40.3571 16.6893 69.6123C16.6893 98.8675 40.3833 122.841 69.6115 122.841Z" fill="#1A1A1A" fill-opacity="0.25"/>
<path fill-rule="evenodd" clip-rule="evenodd" d="M115.011 16.6455C102.819 6.21122 86.9905 -0.0898438 69.6916 -0.0898438C31.1568 -0.0898438 -0.0820312 31.1778 -0.0820312 69.7482C-0.0820312 86.56 5.853 101.985 15.7402 114.037C15.8923 115.942 15.0977 120.206 12.4031 124.267C10.3929 127.01 9.2049 128.117 8.47801 128.795C7.90545 129.328 7.61868 129.596 7.44115 130.185C7.38734 130.364 7.34481 131.685 8.81052 132.62C10.582 133.75 13.7725 134.2 20.3133 133.12C22.193 132.582 26.941 131.279 30.8977 130.363C31.632 130.148 33.3191 129.774 34.3221 129.961C44.6933 136.078 56.7831 139.586 69.6916 139.586C88.3244 139.586 105.251 132.276 117.766 120.364C117.765 120.364 117.765 120.365 117.765 120.365C118.718 119.165 118.925 117.409 118.973 116.834C119.181 111.986 114.473 109.772 113.556 109.341L113.544 109.335C110.68 107.988 105.733 109.122 103.887 110.178C94.6641 118.001 82.7284 122.719 69.6916 122.719C40.4634 122.719 16.7693 99.0034 16.7693 69.7482C16.7693 40.493 40.4634 16.7771 69.6916 16.7771C81.5339 16.7771 92.468 20.6703 101.285 27.2481C101.252 27.2136 101.22 27.1794 101.187 27.1455C102.025 27.8067 104.78 29.465 109.806 27.5971C112.113 26.7398 115.767 23.7915 116.138 21.8081C116.468 20.0376 115.699 17.8388 115.011 16.6455Z" fill="#1A1A1A"/>
<path opacity="0.9" d="M95.0006 79.5606C100.49 79.5606 104.941 75.1061 104.941 69.6113C104.941 64.1165 100.49 59.6621 95.0006 59.6621C89.5109 59.6621 85.0605 64.1165 85.0605 69.6113C85.0605 75.1061 89.5109 79.5606 95.0006 79.5606Z" fill="#1A1A1A"/>
<path opacity="0.7" d="M69.6119 79.5606C75.1017 79.5606 79.552 75.1061 79.552 69.6113C79.552 64.1165 75.1017 59.6621 69.6119 59.6621C64.1222 59.6621 59.6719 64.1165 59.6719 69.6113C59.6719 75.1061 64.1222 79.5606 69.6119 79.5606Z" fill="#1A1A1A"/>
<path opacity="0.4" d="M44.233 79.5606C49.7227 79.5606 54.1731 75.1061 54.1731 69.6113C54.1731 64.1165 49.7227 59.6621 44.233 59.6621C38.7433 59.6621 34.293 64.1165 34.293 69.6113C34.293 75.1061 38.7433 79.5606 44.233 79.5606Z" fill="#1A1A1A"/>
</g>
<defs>
<clipPath id="clip0_3108_2620">
<rect width="139.676" height="139.676" fill="white"/>
</clipPath>
</defs>
</svg>
