<svg width="114" height="114" viewBox="0 0 114 114" fill="none" xmlns="http://www.w3.org/2000/svg">
<path opacity="0.2" d="M113.676 56.6294C113.676 88.0345 88.0157 113.426 56.6711 113.426C46.1393 113.426 36.3597 110.586 27.9176 105.575C27.0817 105.408 25.7444 105.742 25.1593 105.909C21.8994 106.66 18.0545 107.746 16.55 108.164C11.2005 109.083 8.60932 108.665 7.18836 107.746C6.01816 106.994 6.26892 106.076 6.35251 105.909C6.51968 105.408 6.77044 105.24 7.18836 104.739C7.77346 104.155 8.77649 103.403 10.4482 101.148C12.6214 97.8068 13.1229 94.1318 13.0394 92.6283C4.84797 82.856 0 70.2438 0 56.6294C0 25.2243 25.3264 0 56.6711 0C88.0157 0 113.676 25.2243 113.676 56.6294ZM56.6711 99.8949C80.493 99.8949 100.136 80.4338 100.136 56.6294C100.136 32.825 80.493 13.5309 56.6711 13.5309C32.8492 13.5309 13.6245 32.825 13.6245 56.6294C13.6245 80.4338 32.8492 99.8949 56.6711 99.8949Z" fill="white"/>
<path fill-rule="evenodd" clip-rule="evenodd" d="M93.6995 13.6144C83.7528 5.09498 70.8806 0 56.7546 0C25.41 0 0 25.3914 0 56.7965C0 70.4944 4.84797 83.023 12.8722 92.7954C12.9558 94.3823 12.3707 97.8068 10.1974 101.148C8.52573 103.403 7.60629 104.238 7.02119 104.823C6.51968 105.24 6.35251 105.491 6.18534 105.992C6.10175 106.159 6.10175 107.245 7.27195 107.997C8.6929 108.916 11.2841 109.25 16.6335 108.414C18.1381 107.997 22.0666 106.911 25.2429 106.159C25.828 105.992 27.2489 105.658 28.0012 105.825C36.4433 110.837 46.3064 113.676 56.7546 113.676C71.8836 113.676 85.6753 107.746 95.8727 98.0574C96.625 97.0551 96.7921 95.6352 96.8757 95.2176C97.0429 91.292 93.198 89.4544 92.4457 89.1203C90.1053 88.0345 86.0932 88.9533 84.5887 89.7885C77.0659 96.1364 67.37 99.9785 56.7546 99.9785C32.9327 99.9785 13.708 80.6844 13.708 56.88C13.708 33.0756 33.0163 13.7815 56.7546 13.7815C66.367 13.7815 75.3106 16.9554 82.499 22.301L82.4154 22.2174C83.0841 22.7186 85.3409 24.1385 89.4366 22.5515C91.2755 21.8833 94.2846 19.4611 94.6189 17.8742C94.8697 16.3707 94.201 14.6167 93.6995 13.6144Z" fill="url(#paint0_linear_3130_2662)"/>
<path d="M56.7549 0.530273C70.7103 0.530332 83.4268 5.55021 93.2686 13.9463C93.7505 14.9357 94.3046 16.4897 94.0967 17.7725C94.0354 18.0531 93.8427 18.4243 93.5078 18.8555C93.1767 19.2817 92.7374 19.7288 92.2441 20.1562C91.2496 21.0182 90.0938 21.7481 89.2559 22.0527L89.2451 22.0566C87.2817 22.8174 85.7937 22.8458 84.7393 22.6465C83.6826 22.4467 83.0251 22.0116 82.7334 21.793L82.7207 21.8057C75.4603 16.4369 66.4431 13.251 56.7549 13.251C32.7233 13.251 13.1778 32.7828 13.1777 56.8799C13.1777 80.9763 32.639 100.509 56.7549 100.509C67.4793 100.509 77.2762 96.6333 84.8838 90.2314C85.5712 89.8607 86.8602 89.4488 88.2744 89.2598C89.6313 89.0784 91.0053 89.1161 92.0234 89.5166L92.2227 89.6016L92.2305 89.6055C92.5856 89.7632 93.6699 90.2761 94.6387 91.2051C95.5957 92.1228 96.41 93.4154 96.3457 95.1641C96.2493 95.6745 96.09 96.8568 95.4707 97.7061C85.3716 107.285 71.7249 113.145 56.7549 113.146C46.4038 113.146 36.634 110.333 28.2725 105.369L28.1992 105.325L28.1162 105.308L27.9287 105.274C27.4776 105.215 26.9372 105.269 26.4756 105.343C26.0645 105.409 25.6676 105.498 25.3652 105.576L25.1211 105.643C21.9539 106.392 18.0453 107.471 16.5205 107.895C11.1911 108.724 8.79364 108.35 7.55957 107.552L7.55859 107.551L7.39062 107.433C7.02515 107.153 6.84526 106.845 6.75879 106.6C6.70828 106.456 6.68969 106.332 6.68555 106.245C6.68377 106.208 6.68417 106.181 6.68555 106.166L6.68848 106.16C6.7633 105.936 6.82719 105.802 6.91113 105.683C6.99798 105.56 7.12508 105.426 7.36035 105.23L7.37891 105.215L7.39648 105.198C7.98515 104.61 8.92793 103.752 10.624 101.464L10.6328 101.45L10.6426 101.438C12.8737 98.0076 13.4921 94.4725 13.4023 92.7676L13.3926 92.5938L13.2822 92.459L12.5459 91.543C5.03726 82.0007 0.53037 69.943 0.530273 56.7969C0.530273 25.6846 25.7034 0.530273 56.7549 0.530273Z" stroke="url(#paint1_linear_3130_2662)" stroke-opacity="0.5" stroke-width="1.06098"/>
<path d="M36.0268 64.7315C40.4568 64.7315 44.1346 61.14 44.1346 56.6297C44.1346 52.1194 40.5404 48.5278 36.0268 48.5278C31.5131 48.5278 27.9189 52.1194 27.9189 56.6297C27.9189 61.0565 31.5131 64.7315 36.0268 64.7315V64.7315Z" fill="url(#paint2_linear_3130_2662)"/>
<path d="M36.0264 49.0581C40.2473 49.0581 43.6043 52.4126 43.6045 56.6294C43.6045 60.8428 40.1674 64.2007 36.0264 64.2007C31.8091 64.2005 28.4492 60.7663 28.4492 56.6294C28.4494 52.4127 31.8056 49.0583 36.0264 49.0581Z" stroke="url(#paint3_linear_3130_2662)" stroke-opacity="0.5" stroke-width="1.06098"/>
<path d="M56.4862 64.7315C60.9163 64.7315 64.594 61.14 64.594 56.6297C64.594 52.1194 60.9999 48.5278 56.4862 48.5278C51.9726 48.5278 48.3784 52.1194 48.3784 56.6297C48.3784 61.14 51.9726 64.7315 56.4862 64.7315Z" fill="url(#paint4_linear_3130_2662)"/>
<path d="M56.4858 49.0581C60.7068 49.0581 64.0638 52.4126 64.064 56.6294C64.064 60.8428 60.6268 64.2007 56.4858 64.2007C52.265 64.2005 48.9087 60.8462 48.9087 56.6294C48.9088 52.4127 52.2651 49.0583 56.4858 49.0581Z" stroke="url(#paint5_linear_3130_2662)" stroke-opacity="0.5" stroke-width="1.06098"/>
<path d="M76.9457 64.7315C81.3757 64.7315 85.0535 61.14 85.0535 56.6297C85.0535 52.1194 81.4593 48.5278 76.9457 48.5278C72.4321 48.5278 68.8379 52.1194 68.8379 56.6297C68.8379 61.14 72.5157 64.7315 76.9457 64.7315Z" fill="url(#paint6_linear_3130_2662)"/>
<path d="M76.9453 49.0581C81.1662 49.0581 84.5233 52.4126 84.5234 56.6294C84.5234 60.8428 81.0863 64.2007 76.9453 64.2007C72.8045 64.2005 69.3682 60.8427 69.3682 56.6294C69.3683 52.4127 72.7246 49.0583 76.9453 49.0581Z" stroke="url(#paint7_linear_3130_2662)" stroke-opacity="0.5" stroke-width="1.06098"/>
<defs>
<linearGradient id="paint0_linear_3130_2662" x1="21.8747" y1="10.805" x2="101.839" y2="116.628" gradientUnits="userSpaceOnUse">
<stop stop-color="white"/>
<stop offset="1" stop-color="#5C5C5C"/>
</linearGradient>
<linearGradient id="paint1_linear_3130_2662" x1="24.3601" y1="-5.0746" x2="84.2404" y2="113.671" gradientUnits="userSpaceOnUse">
<stop stop-color="white"/>
<stop offset="1" stop-color="white" stop-opacity="0"/>
</linearGradient>
<linearGradient id="paint2_linear_3130_2662" x1="31.5803" y1="50.068" x2="40.4307" y2="65.1767" gradientUnits="userSpaceOnUse">
<stop stop-color="white"/>
<stop offset="1" stop-color="#8A8A8A"/>
</linearGradient>
<linearGradient id="paint3_linear_3130_2662" x1="31.9963" y1="47.8045" x2="39.694" y2="65.7292" gradientUnits="userSpaceOnUse">
<stop stop-color="white"/>
<stop offset="1" stop-color="white" stop-opacity="0"/>
</linearGradient>
<linearGradient id="paint4_linear_3130_2662" x1="52.0397" y1="50.068" x2="60.8902" y2="65.1767" gradientUnits="userSpaceOnUse">
<stop stop-color="white"/>
<stop offset="1" stop-color="#8A8A8A"/>
</linearGradient>
<linearGradient id="paint5_linear_3130_2662" x1="52.4557" y1="47.8045" x2="60.1535" y2="65.7292" gradientUnits="userSpaceOnUse">
<stop stop-color="white"/>
<stop offset="1" stop-color="white" stop-opacity="0"/>
</linearGradient>
<linearGradient id="paint6_linear_3130_2662" x1="72.4992" y1="50.068" x2="81.3496" y2="65.1766" gradientUnits="userSpaceOnUse">
<stop stop-color="white"/>
<stop offset="1" stop-color="#8A8A8A"/>
</linearGradient>
<linearGradient id="paint7_linear_3130_2662" x1="72.9152" y1="47.8045" x2="80.613" y2="65.7291" gradientUnits="userSpaceOnUse">
<stop stop-color="white"/>
<stop offset="1" stop-color="white" stop-opacity="0"/>
</linearGradient>
</defs>
</svg>
