<svg width="793" height="200" viewBox="0 0 793 200" fill="none" xmlns="http://www.w3.org/2000/svg">
<mask id="path-1-inside-1_3099_2636" fill="white">
<path d="M136.577 53.9826C130.292 47.2142 124.168 42.7019 118.206 40.4458C112.404 38.1896 106.522 37.0615 100.559 37.0615C91.6961 37.0615 83.6384 38.6731 76.3865 41.8961C69.2958 44.9581 63.172 49.3092 58.0151 54.9495C52.8582 60.4287 48.8294 66.8749 45.9286 74.2879C43.189 81.7009 41.8192 89.678 41.8192 98.2191C41.8192 107.405 43.189 115.865 45.9286 123.601C48.8294 131.336 52.8582 138.024 58.0151 143.664C63.172 149.305 69.2958 153.736 76.3865 156.959C83.6384 160.182 91.6961 161.794 100.559 161.794C107.489 161.794 114.177 160.182 120.623 156.959C127.23 153.575 133.354 148.257 138.994 141.005L164.134 158.893C156.399 169.529 146.972 177.265 135.852 182.099C124.732 186.934 112.888 189.351 100.318 189.351C87.1032 189.351 74.9361 187.256 63.8166 183.066C52.8582 178.715 43.3502 172.672 35.2925 164.936C27.396 157.04 21.1916 147.613 16.6793 136.654C12.1671 125.696 9.91091 113.529 9.91091 100.153C9.91091 86.4549 12.1671 74.0462 16.6793 62.9266C21.1916 51.6459 27.396 42.0573 35.2925 34.1608C43.3502 26.2643 52.8582 20.2211 63.8166 16.0311C74.9361 11.68 87.1032 9.5044 100.318 9.5044C111.921 9.5044 122.637 11.5994 132.468 15.7894C142.459 19.8182 151.726 26.7478 160.267 36.5781L136.577 53.9826ZM182.402 2.25251H211.409V185H182.402V2.25251ZM267.917 137.138C268.884 145.84 272.269 152.608 278.07 157.443C283.872 162.277 290.882 164.695 299.101 164.695C306.352 164.695 312.396 163.244 317.23 160.344C322.226 157.282 326.577 153.495 330.284 148.982L351.072 164.695C344.304 173.075 336.73 179.037 328.35 182.583C319.97 186.128 311.187 187.901 302.001 187.901C293.299 187.901 285.08 186.45 277.345 183.55C269.61 180.649 262.922 176.539 257.281 171.221C251.641 165.903 247.129 159.538 243.745 152.125C240.521 144.551 238.91 136.171 238.91 126.985C238.91 117.799 240.521 109.5 243.745 102.087C247.129 94.5126 251.641 88.0665 257.281 82.7484C262.922 77.4304 269.61 73.321 277.345 70.4202C285.08 67.5195 293.299 66.0691 302.001 66.0691C310.059 66.0691 317.391 67.5195 323.999 70.4202C330.767 73.1598 336.488 77.1886 341.162 82.5067C345.996 87.8247 349.703 94.432 352.281 102.329C355.021 110.064 356.39 119.008 356.39 129.16V137.138H267.917ZM327.383 115.382C327.222 106.841 324.563 100.153 319.406 95.3184C314.249 90.3226 307.078 87.8247 297.892 87.8247C289.19 87.8247 282.26 90.3226 277.103 95.3184C272.107 100.314 269.046 107.002 267.917 115.382H327.383ZM383.517 68.9698H412.525V87.3413H413.008C416.231 80.5729 420.824 75.3354 426.787 71.6289C432.749 67.9224 439.598 66.0691 447.334 66.0691C449.106 66.0691 450.798 66.2302 452.41 66.5526C454.183 66.8749 455.955 67.2777 457.728 67.7612V95.8018C455.311 95.1572 452.893 94.6737 450.476 94.3514C448.22 93.868 445.964 93.6263 443.708 93.6263C436.939 93.6263 431.46 94.9155 427.27 97.4939C423.241 99.9112 420.099 102.731 417.843 105.954C415.748 109.178 414.297 112.401 413.491 115.624C412.847 118.847 412.525 121.264 412.525 122.876V185H383.517V68.9698ZM477.471 2.25251H506.478V117.074L551.198 68.9698H588.424L538.628 121.667L591.567 185H553.132L506.962 125.776H506.478V185H477.471V2.25251ZM607.789 68.9698H636.797V185H607.789V68.9698ZM603.68 29.5679C603.68 24.8945 605.372 20.8657 608.756 17.4815C612.301 13.9361 616.733 12.1634 622.051 12.1634C627.369 12.1634 631.801 13.8555 635.346 17.2397C639.053 20.4628 640.906 24.5722 640.906 29.5679C640.906 34.5637 639.053 38.7537 635.346 42.1379C631.801 45.3609 627.369 46.9725 622.051 46.9725C616.733 46.9725 612.301 45.2804 608.756 41.8961C605.372 38.3508 603.68 34.2414 603.68 29.5679ZM693.305 137.138C694.272 145.84 697.656 152.608 703.457 157.443C709.259 162.277 716.269 164.695 724.488 164.695C731.74 164.695 737.783 163.244 742.618 160.344C747.613 157.282 751.964 153.495 755.671 148.982L776.46 164.695C769.691 173.075 762.117 179.037 753.737 182.583C745.357 186.128 736.574 187.901 727.389 187.901C718.686 187.901 710.468 186.45 702.732 183.55C694.997 180.649 688.309 176.539 682.669 171.221C677.028 165.903 672.516 159.538 669.132 152.125C665.909 144.551 664.297 136.171 664.297 126.985C664.297 117.799 665.909 109.5 669.132 102.087C672.516 94.5126 677.028 88.0665 682.669 82.7484C688.309 77.4304 694.997 73.321 702.732 70.4202C710.468 67.5195 718.686 66.0691 727.389 66.0691C735.446 66.0691 742.779 67.5195 749.386 70.4202C756.154 73.1598 761.875 77.1886 766.549 82.5067C771.383 87.8247 775.09 94.432 777.668 102.329C780.408 110.064 781.778 119.008 781.778 129.16V137.138H693.305ZM752.77 115.382C752.609 106.841 749.95 100.153 744.793 95.3184C739.636 90.3226 732.465 87.8247 723.279 87.8247C714.577 87.8247 707.647 90.3226 702.49 95.3184C697.495 100.314 694.433 107.002 693.305 115.382H752.77Z"/>
</mask>
<path d="M136.577 53.9826C130.292 47.2142 124.168 42.7019 118.206 40.4458C112.404 38.1896 106.522 37.0615 100.559 37.0615C91.6961 37.0615 83.6384 38.6731 76.3865 41.8961C69.2958 44.9581 63.172 49.3092 58.0151 54.9495C52.8582 60.4287 48.8294 66.8749 45.9286 74.2879C43.189 81.7009 41.8192 89.678 41.8192 98.2191C41.8192 107.405 43.189 115.865 45.9286 123.601C48.8294 131.336 52.8582 138.024 58.0151 143.664C63.172 149.305 69.2958 153.736 76.3865 156.959C83.6384 160.182 91.6961 161.794 100.559 161.794C107.489 161.794 114.177 160.182 120.623 156.959C127.23 153.575 133.354 148.257 138.994 141.005L164.134 158.893C156.399 169.529 146.972 177.265 135.852 182.099C124.732 186.934 112.888 189.351 100.318 189.351C87.1032 189.351 74.9361 187.256 63.8166 183.066C52.8582 178.715 43.3502 172.672 35.2925 164.936C27.396 157.04 21.1916 147.613 16.6793 136.654C12.1671 125.696 9.91091 113.529 9.91091 100.153C9.91091 86.4549 12.1671 74.0462 16.6793 62.9266C21.1916 51.6459 27.396 42.0573 35.2925 34.1608C43.3502 26.2643 52.8582 20.2211 63.8166 16.0311C74.9361 11.68 87.1032 9.5044 100.318 9.5044C111.921 9.5044 122.637 11.5994 132.468 15.7894C142.459 19.8182 151.726 26.7478 160.267 36.5781L136.577 53.9826ZM182.402 2.25251H211.409V185H182.402V2.25251ZM267.917 137.138C268.884 145.84 272.269 152.608 278.07 157.443C283.872 162.277 290.882 164.695 299.101 164.695C306.352 164.695 312.396 163.244 317.23 160.344C322.226 157.282 326.577 153.495 330.284 148.982L351.072 164.695C344.304 173.075 336.73 179.037 328.35 182.583C319.97 186.128 311.187 187.901 302.001 187.901C293.299 187.901 285.08 186.45 277.345 183.55C269.61 180.649 262.922 176.539 257.281 171.221C251.641 165.903 247.129 159.538 243.745 152.125C240.521 144.551 238.91 136.171 238.91 126.985C238.91 117.799 240.521 109.5 243.745 102.087C247.129 94.5126 251.641 88.0665 257.281 82.7484C262.922 77.4304 269.61 73.321 277.345 70.4202C285.08 67.5195 293.299 66.0691 302.001 66.0691C310.059 66.0691 317.391 67.5195 323.999 70.4202C330.767 73.1598 336.488 77.1886 341.162 82.5067C345.996 87.8247 349.703 94.432 352.281 102.329C355.021 110.064 356.39 119.008 356.39 129.16V137.138H267.917ZM327.383 115.382C327.222 106.841 324.563 100.153 319.406 95.3184C314.249 90.3226 307.078 87.8247 297.892 87.8247C289.19 87.8247 282.26 90.3226 277.103 95.3184C272.107 100.314 269.046 107.002 267.917 115.382H327.383ZM383.517 68.9698H412.525V87.3413H413.008C416.231 80.5729 420.824 75.3354 426.787 71.6289C432.749 67.9224 439.598 66.0691 447.334 66.0691C449.106 66.0691 450.798 66.2302 452.41 66.5526C454.183 66.8749 455.955 67.2777 457.728 67.7612V95.8018C455.311 95.1572 452.893 94.6737 450.476 94.3514C448.22 93.868 445.964 93.6263 443.708 93.6263C436.939 93.6263 431.46 94.9155 427.27 97.4939C423.241 99.9112 420.099 102.731 417.843 105.954C415.748 109.178 414.297 112.401 413.491 115.624C412.847 118.847 412.525 121.264 412.525 122.876V185H383.517V68.9698ZM477.471 2.25251H506.478V117.074L551.198 68.9698H588.424L538.628 121.667L591.567 185H553.132L506.962 125.776H506.478V185H477.471V2.25251ZM607.789 68.9698H636.797V185H607.789V68.9698ZM603.68 29.5679C603.68 24.8945 605.372 20.8657 608.756 17.4815C612.301 13.9361 616.733 12.1634 622.051 12.1634C627.369 12.1634 631.801 13.8555 635.346 17.2397C639.053 20.4628 640.906 24.5722 640.906 29.5679C640.906 34.5637 639.053 38.7537 635.346 42.1379C631.801 45.3609 627.369 46.9725 622.051 46.9725C616.733 46.9725 612.301 45.2804 608.756 41.8961C605.372 38.3508 603.68 34.2414 603.68 29.5679ZM693.305 137.138C694.272 145.84 697.656 152.608 703.457 157.443C709.259 162.277 716.269 164.695 724.488 164.695C731.74 164.695 737.783 163.244 742.618 160.344C747.613 157.282 751.964 153.495 755.671 148.982L776.46 164.695C769.691 173.075 762.117 179.037 753.737 182.583C745.357 186.128 736.574 187.901 727.389 187.901C718.686 187.901 710.468 186.45 702.732 183.55C694.997 180.649 688.309 176.539 682.669 171.221C677.028 165.903 672.516 159.538 669.132 152.125C665.909 144.551 664.297 136.171 664.297 126.985C664.297 117.799 665.909 109.5 669.132 102.087C672.516 94.5126 677.028 88.0665 682.669 82.7484C688.309 77.4304 694.997 73.321 702.732 70.4202C710.468 67.5195 718.686 66.0691 727.389 66.0691C735.446 66.0691 742.779 67.5195 749.386 70.4202C756.154 73.1598 761.875 77.1886 766.549 82.5067C771.383 87.8247 775.09 94.432 777.668 102.329C780.408 110.064 781.778 119.008 781.778 129.16V137.138H693.305ZM752.77 115.382C752.609 106.841 749.95 100.153 744.793 95.3184C739.636 90.3226 732.465 87.8247 723.279 87.8247C714.577 87.8247 707.647 90.3226 702.49 95.3184C697.495 100.314 694.433 107.002 693.305 115.382H752.77Z" fill="url(#paint0_linear_3099_2636)"/>
<path d="M136.577 53.9826L135.148 55.3095L136.331 56.5832L137.732 55.5541L136.577 53.9826ZM118.206 40.4458L117.499 42.2632L117.507 42.2664L117.516 42.2696L118.206 40.4458ZM76.3865 41.8961L77.1596 43.6864L77.1691 43.6823L77.1785 43.6781L76.3865 41.8961ZM58.0151 54.9495L59.4351 56.286L59.4447 56.2757L59.4542 56.2653L58.0151 54.9495ZM45.9286 74.2879L44.1127 73.5773L44.1059 73.5946L44.0995 73.6119L45.9286 74.2879ZM45.9286 123.601L44.0905 124.252L44.0965 124.269L44.1027 124.285L45.9286 123.601ZM58.0151 143.664L56.5759 144.98V144.98L58.0151 143.664ZM76.3865 156.959L75.5796 158.735L75.5871 158.738L75.5945 158.741L76.3865 156.959ZM120.623 156.959L121.495 158.704L121.504 158.699L121.512 158.695L120.623 156.959ZM138.994 141.005L140.125 139.416L138.602 138.333L137.455 139.808L138.994 141.005ZM164.134 158.893L165.711 160.04L166.87 158.447L165.265 157.304L164.134 158.893ZM135.852 182.099L136.63 183.888V183.888L135.852 182.099ZM63.8166 183.066L63.097 184.879L63.1129 184.885L63.129 184.891L63.8166 183.066ZM35.2925 164.936L33.9136 166.315L33.9277 166.329L33.9421 166.343L35.2925 164.936ZM16.6793 136.654L18.4825 135.912V135.912L16.6793 136.654ZM16.6793 62.9266L18.4863 63.6599L18.4899 63.6508L16.6793 62.9266ZM35.2925 34.1608L33.9276 32.7681L33.9206 32.775L33.9136 32.7819L35.2925 34.1608ZM63.8166 16.0311L64.513 17.8525L64.5201 17.8498L64.5272 17.847L63.8166 16.0311ZM132.468 15.7894L131.703 17.5832L131.721 17.5907L131.739 17.5979L132.468 15.7894ZM160.267 36.5781L161.421 38.1496L163.127 36.8966L161.739 35.2991L160.267 36.5781ZM136.577 53.9826L138.006 52.6557C131.602 45.7586 125.237 41.0214 118.896 38.6219L118.206 40.4458L117.516 42.2696C123.1 44.3824 128.983 48.6698 135.148 55.3095L136.577 53.9826ZM118.206 40.4458L118.912 38.6283C112.896 36.2885 106.774 35.1115 100.559 35.1115V37.0616V39.0116C106.27 39.0116 111.913 40.0908 117.499 42.2632L118.206 40.4458ZM100.559 37.0616V35.1115C91.4552 35.1115 83.1234 36.768 75.5945 40.1142L76.3865 41.8961L77.1785 43.6781C84.1534 40.5781 91.9369 39.0116 100.559 39.0116V37.0616ZM76.3865 41.8961L75.6135 40.1059C68.2724 43.2759 61.9208 47.7877 56.5759 53.6337L58.0151 54.9495L59.4542 56.2653C64.4231 50.8307 70.3191 46.6402 77.1596 43.6864L76.3865 41.8961ZM58.0151 54.9495L56.5951 53.6131C51.2577 59.284 47.0989 65.9459 44.1127 73.5773L45.9286 74.2879L47.7445 74.9985C50.5598 67.8038 54.4587 61.5734 59.4351 56.286L58.0151 54.9495ZM45.9286 74.2879L44.0995 73.6119C41.2737 81.2582 39.8692 89.466 39.8692 98.2191H41.8192H43.7692C43.7692 89.89 45.1043 82.1436 47.7577 74.9639L45.9286 74.2879ZM41.8192 98.2191H39.8692C39.8692 107.6 41.2685 116.284 44.0905 124.252L45.9286 123.601L47.7667 122.95C45.1095 115.447 43.7692 107.209 43.7692 98.2191H41.8192ZM45.9286 123.601L44.1027 124.285C47.0838 132.235 51.2378 139.142 56.5759 144.98L58.0151 143.664L59.4542 142.348C54.4785 136.906 50.5749 130.437 47.7545 122.916L45.9286 123.601ZM58.0151 143.664L56.5759 144.98C61.9138 150.818 68.254 155.405 75.5796 158.735L76.3865 156.959L77.1934 155.184C70.3376 152.068 64.4301 147.791 59.4542 142.348L58.0151 143.664ZM76.3865 156.959L75.5945 158.741C83.1234 162.087 91.4552 163.744 100.559 163.744V161.794V159.844C91.9369 159.844 84.1534 158.277 77.1785 155.177L76.3865 156.959ZM100.559 161.794V163.744C107.804 163.744 114.789 162.056 121.495 158.704L120.623 156.959L119.751 155.215C113.564 158.309 107.174 159.844 100.559 159.844V161.794ZM120.623 156.959L121.512 158.695C128.426 155.154 134.759 149.627 140.534 142.202L138.994 141.005L137.455 139.808C131.949 146.887 126.035 151.996 119.734 155.224L120.623 156.959ZM138.994 141.005L137.864 142.594L163.004 160.482L164.134 158.893L165.265 157.304L140.125 139.416L138.994 141.005ZM164.134 158.893L162.557 157.746C155.009 168.126 145.848 175.627 135.074 180.311L135.852 182.099L136.63 183.888C148.095 178.903 157.789 170.933 165.711 160.04L164.134 158.893ZM135.852 182.099L135.074 180.311C124.209 185.035 112.63 187.401 100.318 187.401V189.351V191.301C113.145 191.301 125.256 188.833 136.63 183.888L135.852 182.099ZM100.318 189.351V187.401C87.3118 187.401 75.3807 185.34 64.5042 181.241L63.8166 183.066L63.129 184.891C74.4916 189.173 86.8945 191.301 100.318 191.301V189.351ZM63.8166 183.066L64.5362 181.254C53.7991 176.991 44.5086 171.081 36.643 163.53L35.2925 164.936L33.9421 166.343C42.1917 174.263 51.9172 180.44 63.097 184.879L63.8166 183.066ZM35.2925 164.936L36.6714 163.558C28.9679 155.854 22.9028 146.647 18.4825 135.912L16.6793 136.654L14.8762 137.397C19.4804 148.578 25.8241 158.226 33.9136 166.315L35.2925 164.936ZM16.6793 136.654L18.4825 135.912C14.0789 125.217 11.8609 113.307 11.8609 100.153H9.91091H7.96089C7.96089 113.751 10.2552 126.174 14.8762 137.397L16.6793 136.654ZM9.91091 100.153H11.8609C11.8609 86.671 14.0809 74.5159 18.4862 63.6599L16.6793 62.9266L14.8724 62.1934C10.2532 73.5764 7.96089 86.2389 7.96089 100.153H9.91091ZM16.6793 62.9266L18.4899 63.6508C22.9128 52.5936 28.9775 43.2335 36.6714 35.5397L35.2925 34.1608L33.9136 32.7819C25.8145 40.881 19.4704 50.6982 14.8688 62.2024L16.6793 62.9266ZM35.2925 34.1608L36.6574 35.5535C44.5163 27.8517 53.7943 21.9508 64.513 17.8525L63.8166 16.0311L63.1202 14.2097C51.9221 18.4913 42.184 24.6768 33.9276 32.7681L35.2925 34.1608ZM63.8166 16.0311L64.5272 17.847C75.3973 13.5935 87.3204 11.4544 100.318 11.4544V9.50439V7.55438C86.886 7.55438 74.4749 9.76643 63.106 14.2151L63.8166 16.0311ZM100.318 9.50439V11.4544C111.681 11.4544 122.135 13.5049 131.703 17.5832L132.468 15.7894L133.232 13.9955C123.14 9.69392 112.161 7.55438 100.318 7.55438V9.50439ZM132.468 15.7894L131.739 17.5979C141.39 21.4897 150.414 28.2114 158.795 37.8571L160.267 36.5781L161.739 35.2991C153.037 25.2841 143.528 18.1466 133.197 13.9808L132.468 15.7894ZM160.267 36.5781L159.112 35.0066L135.423 52.4111L136.577 53.9826L137.732 55.5541L161.421 38.1496L160.267 36.5781ZM182.402 2.2525V0.30249H180.452V2.2525H182.402ZM211.409 2.2525H213.359V0.30249H211.409V2.2525ZM211.409 185V186.95H213.359V185H211.409ZM182.402 185H180.452V186.95H182.402V185ZM182.402 2.2525V4.20253H211.409V2.2525V0.30249H182.402V2.2525ZM211.409 2.2525H209.459V185H211.409H213.359V2.2525H211.409ZM211.409 185V183.05H182.402V185V186.95H211.409V185ZM182.402 185H184.352V2.2525H182.402H180.452V185H182.402ZM267.917 137.138V135.188H265.739L265.979 137.353L267.917 137.138ZM278.07 157.443L279.318 155.945V155.945L278.07 157.443ZM317.23 160.344L318.234 162.016L318.241 162.011L318.249 162.006L317.23 160.344ZM330.284 148.982L331.459 147.427L329.966 146.297L328.777 147.745L330.284 148.982ZM351.072 164.695L352.589 165.92L353.855 164.353L352.248 163.139L351.072 164.695ZM328.35 182.583L329.11 184.379V184.379L328.35 182.583ZM257.281 171.221L258.619 169.803V169.803L257.281 171.221ZM243.745 152.125L241.95 152.888L241.96 152.912L241.971 152.935L243.745 152.125ZM243.745 102.087L241.964 101.291L241.96 101.3L241.956 101.309L243.745 102.087ZM257.281 82.7484L258.619 84.1672V84.1672L257.281 82.7484ZM277.345 70.4202L276.66 68.5944V68.5944L277.345 70.4202ZM323.999 70.4202L323.215 72.2057L323.241 72.2171L323.267 72.2278L323.999 70.4202ZM341.161 82.5067L339.697 83.7939L339.708 83.8063L339.719 83.8184L341.161 82.5067ZM352.281 102.329L350.427 102.934L350.435 102.957L350.443 102.98L352.281 102.329ZM356.39 137.138V139.088H358.34V137.138H356.39ZM327.383 115.382V117.332H329.37L329.333 115.345L327.383 115.382ZM319.406 95.3184L318.049 96.7189L318.06 96.73L318.072 96.741L319.406 95.3184ZM277.103 95.3184L275.746 93.9178L275.735 93.9285L275.724 93.9395L277.103 95.3184ZM267.917 115.382L265.985 115.122L265.687 117.332H267.917V115.382ZM267.917 137.138L265.979 137.353C266.992 146.47 270.572 153.733 276.822 158.941L278.07 157.443L279.318 155.945C273.966 151.484 270.776 145.21 269.856 136.922L267.917 137.138ZM278.07 157.443L276.822 158.941C283.006 164.094 290.469 166.645 299.101 166.645V164.695V162.745C291.295 162.745 284.738 160.461 279.318 155.945L278.07 157.443ZM299.101 164.695V166.645C306.607 166.645 313.021 165.143 318.234 162.016L317.23 160.344L316.227 158.671C311.771 161.345 306.098 162.745 299.101 162.745V164.695ZM317.23 160.344L318.249 162.006C323.43 158.831 327.946 154.901 331.79 150.22L330.284 148.982L328.777 147.745C325.209 152.088 321.023 155.732 316.211 158.681L317.23 160.344ZM330.284 148.982L329.108 150.538L349.897 166.25L351.072 164.695L352.248 163.139L331.459 147.427L330.284 148.982ZM351.072 164.695L349.555 163.469C342.952 171.646 335.625 177.388 327.59 180.787L328.35 182.583L329.11 184.379C337.835 180.687 345.656 174.504 352.589 165.92L351.072 164.695ZM328.35 182.583L327.59 180.787C319.453 184.229 310.929 185.951 302.001 185.951V187.901V189.851C311.446 189.851 320.487 188.027 329.11 184.379L328.35 182.583ZM302.001 187.901V185.951C293.52 185.951 285.535 184.538 278.03 181.724L277.345 183.55L276.66 185.375C284.626 188.363 293.078 189.851 302.001 189.851V187.901ZM277.345 183.55L278.03 181.724C270.521 178.908 264.059 174.931 258.619 169.803L257.281 171.221L255.944 172.64C261.785 178.147 268.698 182.39 276.66 185.375L277.345 183.55ZM257.281 171.221L258.619 169.803C253.171 164.666 248.803 158.511 245.518 151.315L243.745 152.125L241.971 152.935C245.454 160.565 250.111 167.141 255.944 172.64L257.281 171.221ZM243.745 152.125L245.539 151.361C242.43 144.055 240.86 135.939 240.86 126.985H238.91H236.96C236.96 136.403 238.613 145.046 241.95 152.888L243.745 152.125ZM238.91 126.985H240.86C240.86 118.03 242.43 110.001 245.533 102.864L243.745 102.087L241.956 101.309C238.613 108.999 236.96 117.568 236.96 126.985H238.91ZM243.745 102.087L245.525 102.882C248.812 95.5264 253.179 89.2966 258.619 84.1672L257.281 82.7484L255.944 81.3296C250.103 86.8363 245.446 93.4988 241.964 101.291L243.745 102.087ZM257.281 82.7484L258.619 84.1672C264.059 79.0384 270.521 75.0619 278.03 72.2461L277.345 70.4202L276.66 68.5944C268.698 71.58 261.785 75.8224 255.944 81.3296L257.281 82.7484ZM277.345 70.4202L278.03 72.2461C285.535 69.4317 293.52 68.0191 302.001 68.0191V66.0691V64.1191C293.078 64.1191 284.626 65.6072 276.66 68.5944L277.345 70.4202ZM302.001 66.0691V68.0191C309.821 68.0191 316.882 69.4255 323.215 72.2057L323.999 70.4202L324.783 68.6347C317.901 65.6135 310.297 64.1191 302.001 64.1191V66.0691ZM323.999 70.4202L323.267 72.2278C329.763 74.8571 335.23 78.7113 339.697 83.7939L341.161 82.5067L342.626 81.2195C337.746 75.6659 331.771 71.4625 324.73 68.6127L323.999 70.4202ZM341.161 82.5067L339.719 83.8184C344.341 88.9033 347.921 95.2586 350.427 102.934L352.281 102.329L354.135 101.723C351.484 93.6054 347.651 86.7462 342.604 81.195L341.161 82.5067ZM352.281 102.329L350.443 102.98C353.093 110.463 354.44 119.179 354.44 129.16H356.39H358.34C358.34 118.837 356.948 109.665 354.119 101.678L352.281 102.329ZM356.39 129.16H354.44V137.138H356.39H358.34V129.16H356.39ZM356.39 137.138V135.188H267.917V137.138V139.088H356.39V137.138ZM327.383 115.382L329.333 115.345C329.164 106.396 326.358 99.1635 320.74 93.8958L319.406 95.3184L318.072 96.741C322.767 101.142 325.28 107.286 325.433 115.419L327.383 115.382ZM319.406 95.3184L320.763 93.9178C315.148 88.4788 307.437 85.8747 297.892 85.8747V87.8247V89.7748C306.719 89.7748 313.35 92.1664 318.049 96.7189L319.406 95.3184ZM297.892 87.8247V85.8747C288.797 85.8747 281.341 88.4976 275.746 93.9178L277.103 95.3184L278.46 96.7189C283.179 92.1477 289.582 89.7748 297.892 89.7748V87.8247ZM277.103 95.3184L275.724 93.9395C270.37 99.2935 267.158 106.404 265.985 115.122L267.917 115.382L269.85 115.642C270.933 107.6 273.845 101.335 278.482 96.6972L277.103 95.3184ZM267.917 115.382V117.332H327.383V115.382V113.432H267.917V115.382ZM383.517 68.9698V67.0198H381.567V68.9698H383.517ZM412.525 68.9698H414.475V67.0198H412.525V68.9698ZM412.525 87.3413H410.575V89.2913H412.525V87.3413ZM413.008 87.3413V89.2913H414.239L414.769 88.1797L413.008 87.3413ZM452.41 66.5526L452.028 68.4647L452.044 68.4681L452.061 68.4711L452.41 66.5526ZM457.728 67.7612H459.678V66.2718L458.241 65.8799L457.728 67.7612ZM457.728 95.8018L457.226 97.686L459.678 98.34V95.8018H457.728ZM450.476 94.3514L450.068 96.2582L450.142 96.2742L450.218 96.2843L450.476 94.3514ZM427.27 97.4939L428.273 99.1661L428.283 99.1604L428.292 99.1547L427.27 97.4939ZM417.843 105.954L416.245 104.836L416.226 104.864L416.208 104.892L417.843 105.954ZM413.491 115.624L411.6 115.151L411.588 115.196L411.579 115.241L413.491 115.624ZM412.525 185V186.95H414.475V185H412.525ZM383.517 185H381.567V186.95H383.517V185ZM383.517 68.9698V70.9199H412.525V68.9698V67.0198H383.517V68.9698ZM412.525 68.9698H410.575V87.3413H412.525H414.475V68.9698H412.525ZM412.525 87.3413V89.2913H413.008V87.3413V85.3913H412.525V87.3413ZM413.008 87.3413L414.769 88.1797C417.843 81.7243 422.192 76.781 427.816 73.285L426.787 71.6289L425.757 69.9727C419.456 73.8898 414.62 79.4214 411.247 86.5029L413.008 87.3413ZM426.787 71.6289L427.816 73.285C433.439 69.7898 439.924 68.0191 447.334 68.0191V66.0691V64.1191C439.273 64.1191 432.06 66.0549 425.757 69.9727L426.787 71.6289ZM447.334 66.0691V68.0191C448.988 68.0191 450.551 68.1695 452.028 68.4647L452.41 66.5526L452.792 64.6404C451.046 64.291 449.225 64.1191 447.334 64.1191V66.0691ZM452.41 66.5526L452.061 68.4711C453.777 68.7832 455.495 69.1735 457.215 69.6425L457.728 67.7612L458.241 65.8799C456.415 65.3819 454.588 64.9665 452.759 64.634L452.41 66.5526ZM457.728 67.7612H455.778V95.8018H457.728H459.678V67.7612H457.728ZM457.728 95.8018L458.23 93.9176C455.735 93.2521 453.236 92.7521 450.734 92.4185L450.476 94.3514L450.218 96.2843C452.551 96.5954 454.887 97.0623 457.226 97.686L457.728 95.8018ZM450.476 94.3514L450.885 92.4447C448.497 91.9331 446.104 91.6762 443.708 91.6762V93.6263V95.5763C445.823 95.5763 447.943 95.8028 450.068 96.2582L450.476 94.3514ZM443.708 93.6263V91.6762C436.709 91.6762 430.84 93.0073 426.248 95.8332L427.27 97.4939L428.292 99.1547C432.08 96.8237 437.17 95.5763 443.708 95.5763V93.6263ZM427.27 97.4939L426.267 95.8218C422.048 98.353 418.686 101.35 416.245 104.836L417.843 105.954L419.44 107.073C421.512 104.113 424.434 101.469 428.273 99.1661L427.27 97.4939ZM417.843 105.954L416.208 104.892C414.013 108.268 412.465 111.688 411.6 115.151L413.491 115.624L415.383 116.097C416.129 113.113 417.482 110.087 419.478 107.017L417.843 105.954ZM413.491 115.624L411.579 115.241C410.93 118.489 410.575 121.062 410.575 122.876H412.525H414.475C414.475 121.466 414.764 119.205 415.404 116.006L413.491 115.624ZM412.525 122.876H410.575V185H412.525H414.475V122.876H412.525ZM412.525 185V183.05H383.517V185V186.95H412.525V185ZM383.517 185H385.467V68.9698H383.517H381.567V185H383.517ZM477.47 2.2525V0.30249H475.52V2.2525H477.47ZM506.478 2.2525H508.428V0.30249H506.478V2.2525ZM506.478 117.074H504.528V122.036L507.906 118.402L506.478 117.074ZM551.198 68.9698V67.0198H550.348L549.77 67.6421L551.198 68.9698ZM588.424 68.9698L589.842 70.3092L592.95 67.0198H588.424V68.9698ZM538.628 121.667L537.211 120.328L536.02 121.587L537.132 122.917L538.628 121.667ZM591.567 185V186.95H595.738L593.063 183.749L591.567 185ZM553.132 185L551.594 186.199L552.179 186.95H553.132V185ZM506.961 125.776L508.499 124.577L507.914 123.826H506.961V125.776ZM506.478 125.776V123.826H504.528V125.776H506.478ZM506.478 185V186.95H508.428V185H506.478ZM477.47 185H475.52V186.95H477.47V185ZM477.47 2.2525V4.20253H506.478V2.2525V0.30249H477.47V2.2525ZM506.478 2.2525H504.528V117.074H506.478H508.428V2.2525H506.478ZM506.478 117.074L507.906 118.402L552.626 70.2976L551.198 68.9698L549.77 67.6421L505.05 115.746L506.478 117.074ZM551.198 68.9698V70.9199H588.424V68.9698V67.0198H551.198V68.9698ZM588.424 68.9698L587.007 67.6305L537.211 120.328L538.628 121.667L540.045 123.006L589.842 70.3092L588.424 68.9698ZM538.628 121.667L537.132 122.917L590.071 186.251L591.567 185L593.063 183.749L540.124 120.416L538.628 121.667ZM591.567 185V183.05H553.132V185V186.95H591.567V185ZM553.132 185L554.67 183.801L508.499 124.577L506.961 125.776L505.424 126.975L551.594 186.199L553.132 185ZM506.961 125.776V123.826H506.478V125.776V127.726H506.961V125.776ZM506.478 125.776H504.528V185H506.478H508.428V125.776H506.478ZM506.478 185V183.05H477.47V185V186.95H506.478V185ZM477.47 185H479.421V2.2525H477.47H475.52V185H477.47ZM607.789 68.9698V67.0198H605.839V68.9698H607.789ZM636.797 68.9698H638.747V67.0198H636.797V68.9698ZM636.797 185V186.95H638.747V185H636.797ZM607.789 185H605.839V186.95H607.789V185ZM608.756 17.4815L610.135 18.8603V18.8603L608.756 17.4815ZM635.346 17.2397L634 18.6503L634.033 18.6815L634.067 18.7112L635.346 17.2397ZM635.346 42.1379L636.658 43.5808L636.661 43.5779L635.346 42.1379ZM608.756 41.8961L607.345 43.2426L607.377 43.2754L607.41 43.3067L608.756 41.8961ZM607.789 68.9698V70.9199H636.797V68.9698V67.0198H607.789V68.9698ZM636.797 68.9698H634.847V185H636.797H638.747V68.9698H636.797ZM636.797 185V183.05H607.789V185V186.95H636.797V185ZM607.789 185H609.739V68.9698H607.789H605.839V185H607.789ZM603.68 29.5679H605.63C605.63 25.4255 607.107 21.8887 610.135 18.8603L608.756 17.4815L607.377 16.1026C603.637 19.8426 601.73 24.3635 601.73 29.5679H603.68ZM608.756 17.4815L610.135 18.8603C613.291 15.7046 617.215 14.1134 622.051 14.1134V12.1634V10.2134C616.251 10.2134 611.312 12.1676 607.377 16.1026L608.756 17.4815ZM622.051 12.1634V14.1134C626.914 14.1134 630.85 15.6433 634 18.6503L635.346 17.2397L636.693 15.8292C632.752 12.0677 627.824 10.2134 622.051 10.2134V12.1634ZM635.346 17.2397L634.067 18.7112C637.339 21.5567 638.956 25.1255 638.956 29.5679H640.906H642.856C642.856 24.0189 640.767 19.3689 636.626 15.7682L635.346 17.2397ZM640.906 29.5679H638.956C638.956 34.0128 637.335 37.6811 634.031 40.6978L635.346 42.1379L636.661 43.5779C640.77 39.8262 642.856 35.1145 642.856 29.5679H640.906ZM635.346 42.1379L634.035 40.695C630.889 43.5549 626.942 45.0224 622.051 45.0224V46.9725V48.9225C627.797 48.9225 632.713 47.1669 636.658 43.5808L635.346 42.1379ZM622.051 46.9725V45.0224C617.188 45.0224 613.253 43.4926 610.102 40.4856L608.756 41.8961L607.41 43.3067C611.35 47.0681 616.278 48.9225 622.051 48.9225V46.9725ZM608.756 41.8961L610.167 40.5497C607.11 37.3475 605.63 33.7135 605.63 29.5679H603.68H601.73C601.73 34.7692 603.634 39.354 607.345 43.2426L608.756 41.8961ZM693.305 137.138V135.188H691.126L691.367 137.353L693.305 137.138ZM703.457 157.443L704.706 155.945V155.945L703.457 157.443ZM742.618 160.344L743.621 162.016L743.629 162.011L743.637 162.006L742.618 160.344ZM755.671 148.982L756.847 147.427L755.353 146.297L754.164 147.745L755.671 148.982ZM776.46 164.695L777.977 165.92L779.242 164.353L777.635 163.139L776.46 164.695ZM753.737 182.583L754.497 184.379V184.379L753.737 182.583ZM682.669 171.221L684.006 169.803V169.803L682.669 171.221ZM669.132 152.125L667.337 152.888L667.347 152.912L667.358 152.935L669.132 152.125ZM669.132 102.087L667.351 101.291L667.347 101.3L667.343 101.309L669.132 102.087ZM682.669 82.7484L684.006 84.1672V84.1672L682.669 82.7484ZM702.732 70.4202L702.047 68.5944V68.5944L702.732 70.4202ZM749.386 70.4202L748.602 72.2057L748.628 72.2171L748.654 72.2278L749.386 70.4202ZM766.549 82.5067L765.084 83.7939L765.095 83.8063L765.106 83.8184L766.549 82.5067ZM777.668 102.329L775.815 102.934L775.822 102.957L775.83 102.98L777.668 102.329ZM781.778 137.138V139.088H783.728V137.138H781.778ZM752.77 115.382V117.332H754.757L754.72 115.345L752.77 115.382ZM744.793 95.3184L743.436 96.7189L743.448 96.73L743.459 96.741L744.793 95.3184ZM702.49 95.3184L701.134 93.9178L701.122 93.9285L701.112 93.9395L702.49 95.3184ZM693.305 115.382L691.372 115.122L691.075 117.332H693.305V115.382ZM693.305 137.138L691.367 137.353C692.38 146.47 695.959 153.733 702.209 158.941L703.457 157.443L704.706 155.945C699.353 151.484 696.164 145.21 695.243 136.922L693.305 137.138ZM703.457 157.443L702.209 158.941C708.393 164.094 715.856 166.645 724.488 166.645V164.695V162.745C716.682 162.745 710.125 160.461 704.706 155.945L703.457 157.443ZM724.488 164.695V166.645C731.994 166.645 738.408 165.143 743.621 162.016L742.618 160.344L741.614 158.671C737.158 161.345 731.486 162.745 724.488 162.745V164.695ZM742.618 160.344L743.637 162.006C748.817 158.831 753.333 154.901 757.178 150.22L755.671 148.982L754.164 147.745C750.596 152.088 746.41 155.732 741.599 158.681L742.618 160.344ZM755.671 148.982L754.495 150.538L775.284 166.25L776.46 164.695L777.635 163.139L756.847 147.427L755.671 148.982ZM776.46 164.695L774.943 163.469C768.339 171.646 761.012 177.388 752.977 180.787L753.737 182.583L754.497 184.379C763.222 180.687 771.044 174.504 777.977 165.92L776.46 164.695ZM753.737 182.583L752.977 180.787C744.84 184.229 736.316 185.951 727.389 185.951V187.901V189.851C736.833 189.851 745.874 188.027 754.497 184.379L753.737 182.583ZM727.389 187.901V185.951C718.908 185.951 710.922 184.538 703.417 181.724L702.732 183.55L702.047 185.375C710.013 188.363 718.465 189.851 727.389 189.851V187.901ZM702.732 183.55L703.417 181.724C695.908 178.908 689.446 174.931 684.006 169.803L682.669 171.221L681.331 172.64C687.172 178.147 694.086 182.39 702.047 185.375L702.732 183.55ZM682.669 171.221L684.006 169.803C678.559 164.666 674.191 158.511 670.906 151.315L669.132 152.125L667.358 152.935C670.841 160.565 675.498 167.141 681.331 172.64L682.669 171.221ZM669.132 152.125L670.926 151.361C667.817 144.055 666.247 135.939 666.247 126.985H664.297H662.347C662.347 136.403 664 145.046 667.337 152.888L669.132 152.125ZM664.297 126.985H666.247C666.247 118.03 667.817 110.001 670.92 102.864L669.132 102.087L667.343 101.309C664 108.999 662.347 117.568 662.347 126.985H664.297ZM669.132 102.087L670.912 102.882C674.199 95.5264 678.566 89.2966 684.006 84.1672L682.669 82.7484L681.331 81.3296C675.49 86.8363 670.833 93.4988 667.351 101.291L669.132 102.087ZM682.669 82.7484L684.006 84.1672C689.446 79.0384 695.908 75.0619 703.417 72.2461L702.732 70.4202L702.047 68.5944C694.086 71.58 687.172 75.8224 681.331 81.3296L682.669 82.7484ZM702.732 70.4202L703.417 72.2461C710.922 69.4317 718.908 68.0191 727.389 68.0191V66.0691V64.1191C718.465 64.1191 710.013 65.6072 702.047 68.5944L702.732 70.4202ZM727.389 66.0691V68.0191C735.208 68.0191 742.269 69.4255 748.602 72.2057L749.386 70.4202L750.17 68.6347C743.288 65.6135 735.685 64.1191 727.389 64.1191V66.0691ZM749.386 70.4202L748.654 72.2278C755.15 74.8571 760.617 78.7113 765.084 83.7939L766.549 82.5067L768.014 81.2195C763.133 75.6659 757.158 71.4625 750.118 68.6127L749.386 70.4202ZM766.549 82.5067L765.106 83.8184C769.728 88.9033 773.308 95.2586 775.815 102.934L777.668 102.329L779.522 101.723C776.871 93.6054 773.038 86.7462 767.992 81.195L766.549 82.5067ZM777.668 102.329L775.83 102.98C778.481 110.463 779.828 119.179 779.828 129.16H781.778H783.728C783.728 118.837 782.335 109.665 779.506 101.678L777.668 102.329ZM781.778 129.16H779.828V137.138H781.778H783.728V129.16H781.778ZM781.778 137.138V135.188H693.305V137.138V139.088H781.778V137.138ZM752.77 115.382L754.72 115.345C754.551 106.396 751.746 99.1635 746.127 93.8958L744.793 95.3184L743.459 96.741C748.154 101.142 750.667 107.286 750.82 115.419L752.77 115.382ZM744.793 95.3184L746.15 93.9178C740.536 88.4788 732.824 85.8747 723.279 85.8747V87.8247V89.7748C732.106 89.7748 738.737 92.1664 743.436 96.7189L744.793 95.3184ZM723.279 87.8247V85.8747C714.184 85.8747 706.729 88.4976 701.134 93.9178L702.49 95.3184L703.847 96.7189C708.566 92.1477 714.969 89.7748 723.279 89.7748V87.8247ZM702.49 95.3184L701.112 93.9395C695.758 99.2935 692.546 106.404 691.372 115.122L693.305 115.382L695.237 115.642C696.32 107.6 699.232 101.335 703.869 96.6972L702.49 95.3184ZM693.305 115.382V117.332H752.77V115.382V113.432H693.305V115.382Z" fill="url(#paint1_linear_3099_2636)" fill-opacity="0.5" mask="url(#path-1-inside-1_3099_2636)"/>
<defs>
<linearGradient id="paint0_linear_3099_2636" x1="178.998" y1="20.6889" x2="233.576" y2="329.36" gradientUnits="userSpaceOnUse">
<stop stop-color="white"/>
<stop offset="1" stop-color="#5C5C5C"/>
</linearGradient>
<linearGradient id="paint1_linear_3099_2636" x1="199.336" y1="-9.71658" x2="232.525" y2="271.553" gradientUnits="userSpaceOnUse">
<stop stop-color="white"/>
<stop offset="1" stop-color="white" stop-opacity="0"/>
</linearGradient>
</defs>
</svg>
