<svg width="227" height="227" viewBox="0 0 227 227" fill="none" xmlns="http://www.w3.org/2000/svg">
<path opacity="0.2" d="M227 113.083C227 175.796 175.758 226.5 113.166 226.5C92.1353 226.5 72.6066 220.829 55.7485 210.821C54.0794 210.488 51.4088 211.155 50.2404 211.489C43.7309 212.99 36.0529 215.158 33.0485 215.992C22.3662 217.827 17.1919 216.993 14.3544 215.158C12.0176 213.657 12.5184 211.822 12.6853 211.489C13.0191 210.488 13.5199 210.154 14.3544 209.154C15.5228 207.986 17.5257 206.485 20.864 201.982C25.2037 195.31 26.2052 187.971 26.0382 184.969C9.68088 165.455 0 140.27 0 113.083C0 50.3703 50.5743 0 113.166 0C175.758 0 227 50.3703 227 113.083ZM113.166 199.48C160.736 199.48 199.96 160.618 199.96 113.083C199.96 65.5481 160.736 27.0198 113.166 27.0198C65.5963 27.0198 27.2066 65.5481 27.2066 113.083C27.2066 160.618 65.5963 199.48 113.166 199.48Z" fill="white"/>
<path fill-rule="evenodd" clip-rule="evenodd" d="M187.108 27.1866C167.246 10.1741 141.541 0 113.333 0C50.7412 0 0 50.7039 0 113.417C0 140.77 9.68088 165.788 25.7044 185.303C25.8713 188.472 24.7029 195.31 20.3632 201.982C17.025 206.485 15.189 208.153 14.0206 209.32C13.0191 210.154 12.6853 210.655 12.3515 211.655C12.1846 211.989 12.1846 214.157 14.5213 215.658C17.3588 217.493 22.5331 218.16 33.2154 216.492C36.2199 215.658 44.0647 213.49 50.4074 211.989C51.5757 211.655 54.4132 210.988 55.9154 211.322C72.7735 221.329 92.4691 227 113.333 227C143.544 227 171.085 215.158 191.448 195.81C192.95 193.809 193.284 190.974 193.451 190.14C193.785 182.301 186.107 178.631 184.604 177.964C179.931 175.796 171.919 177.63 168.915 179.298C153.893 191.974 134.531 199.647 113.333 199.647C65.7632 199.647 27.3735 161.118 27.3735 113.583C27.3735 66.0485 65.9302 27.5202 113.333 27.5202C132.528 27.5202 150.387 33.8582 164.742 44.5327L164.575 44.3659C165.91 45.3666 170.417 48.2021 178.596 45.0331C182.268 43.6987 188.276 38.8619 188.944 35.6929C189.445 32.6907 188.11 29.1881 187.108 27.1866Z" fill="url(#paint0_linear_3099_2623)"/>
<path d="M113.333 1.05957C141.202 1.05957 166.599 11.0825 186.253 27.8506C187.215 29.8258 188.317 32.9277 187.903 35.4873C187.782 36.048 187.395 36.7891 186.726 37.6514C186.064 38.5025 185.188 39.3963 184.203 40.25C182.217 41.9716 179.907 43.4291 178.233 44.0371L178.224 44.041L178.213 44.0449C174.292 45.564 171.321 45.6207 169.216 45.2227C167.106 44.8237 165.793 43.9552 165.21 43.5186L165.187 43.5449C150.688 32.8231 132.68 26.4609 113.333 26.4609C65.3446 26.461 26.3147 65.4639 26.3145 113.583C26.3145 161.701 65.1762 200.706 113.333 200.706C134.75 200.706 154.317 192.967 169.509 180.182C170.883 179.442 173.453 178.619 176.274 178.242C179.165 177.856 182.094 177.967 184.158 178.925L184.166 178.929L184.175 178.933C184.884 179.248 187.049 180.272 188.983 182.127C190.894 183.959 192.52 186.539 192.394 190.028C192.201 191.045 191.884 193.41 190.646 195.108C170.479 214.236 143.227 225.94 113.333 225.94C92.6626 225.94 73.1533 220.323 56.4561 210.411L56.3105 210.324L56.1455 210.288L55.9609 210.251C55.025 210.088 53.8568 210.201 52.8691 210.359C51.8015 210.53 50.7824 210.783 50.1631 210.958C43.8434 212.454 36.0468 214.607 32.9971 215.453C22.3498 217.11 17.5616 216.362 15.0967 214.769L15.0938 214.767C14.1344 214.15 13.6943 213.428 13.4971 212.867C13.3962 212.58 13.3578 212.333 13.3496 212.16C13.3461 212.086 13.3488 212.033 13.3516 212.003L13.3564 211.99C13.5059 211.542 13.633 211.274 13.8008 211.036C13.9742 210.791 14.2286 210.526 14.6982 210.135L14.7354 210.104L14.7695 210.069C15.945 208.895 17.827 207.181 21.2139 202.612L21.2334 202.586L21.251 202.56C25.7063 195.71 26.942 188.652 26.7627 185.247L26.7441 184.899L26.5234 184.631L25.7832 183.721C10.3513 164.524 1.05966 140.092 1.05957 113.417C1.05957 51.2891 51.3265 1.05962 113.333 1.05957Z" stroke="url(#paint1_linear_3099_2623)" stroke-opacity="0.5" stroke-width="2.11867"/>
<path d="M71.9419 129.262C80.7882 129.262 88.1324 122.09 88.1324 113.083C88.1324 104.077 80.9551 96.9048 71.9419 96.9048C62.9287 96.9048 55.7515 104.077 55.7515 113.083C55.7515 121.923 62.9287 129.262 71.9419 129.262V129.262Z" fill="url(#paint2_linear_3099_2623)"/>
<path d="M71.9419 97.9644C80.3708 97.9644 87.0728 104.663 87.0728 113.083C87.0727 121.497 80.211 128.203 71.9419 128.203C63.5201 128.203 56.8111 121.345 56.811 113.083C56.811 104.663 63.513 97.9644 71.9419 97.9644Z" stroke="url(#paint3_linear_3099_2623)" stroke-opacity="0.5" stroke-width="2.11867"/>
<path d="M112.797 129.262C121.644 129.262 128.988 122.09 128.988 113.083C128.988 104.077 121.811 96.9048 112.797 96.9048C103.784 96.9048 96.6069 104.077 96.6069 113.083C96.6069 122.09 103.784 129.262 112.797 129.262Z" fill="url(#paint4_linear_3099_2623)"/>
<path d="M112.797 97.9644C121.226 97.9644 127.928 104.663 127.928 113.083C127.928 121.497 121.066 128.203 112.797 128.203C104.369 128.203 97.6666 121.504 97.6665 113.083C97.6665 104.663 104.368 97.9644 112.797 97.9644Z" stroke="url(#paint5_linear_3099_2623)" stroke-opacity="0.5" stroke-width="2.11867"/>
<path d="M153.653 129.262C162.499 129.262 169.843 122.09 169.843 113.083C169.843 104.077 162.666 96.9048 153.653 96.9048C144.64 96.9048 137.462 104.077 137.462 113.083C137.462 122.09 144.807 129.262 153.653 129.262Z" fill="url(#paint6_linear_3099_2623)"/>
<path d="M153.653 97.9644C162.082 97.9644 168.784 104.663 168.784 113.083C168.784 121.497 161.922 128.203 153.653 128.203C145.384 128.203 138.522 121.497 138.522 113.083C138.522 104.663 145.224 97.9644 153.653 97.9644Z" stroke="url(#paint7_linear_3099_2623)" stroke-opacity="0.5" stroke-width="2.11867"/>
<defs>
<linearGradient id="paint0_linear_3099_2623" x1="43.6814" y1="21.5765" x2="203.362" y2="232.894" gradientUnits="userSpaceOnUse">
<stop stop-color="white"/>
<stop offset="1" stop-color="#5C5C5C"/>
</linearGradient>
<linearGradient id="paint1_linear_3099_2623" x1="48.6446" y1="-10.1335" x2="168.219" y2="226.989" gradientUnits="userSpaceOnUse">
<stop stop-color="white"/>
<stop offset="1" stop-color="white" stop-opacity="0"/>
</linearGradient>
<linearGradient id="paint2_linear_3099_2623" x1="63.0627" y1="99.9803" x2="80.7361" y2="130.151" gradientUnits="userSpaceOnUse">
<stop stop-color="white"/>
<stop offset="1" stop-color="#8A8A8A"/>
</linearGradient>
<linearGradient id="paint3_linear_3099_2623" x1="63.8934" y1="95.4603" x2="79.2651" y2="131.254" gradientUnits="userSpaceOnUse">
<stop stop-color="white"/>
<stop offset="1" stop-color="white" stop-opacity="0"/>
</linearGradient>
<linearGradient id="paint4_linear_3099_2623" x1="103.918" y1="99.9803" x2="121.592" y2="130.151" gradientUnits="userSpaceOnUse">
<stop stop-color="white"/>
<stop offset="1" stop-color="#8A8A8A"/>
</linearGradient>
<linearGradient id="paint5_linear_3099_2623" x1="104.749" y1="95.4603" x2="120.121" y2="131.254" gradientUnits="userSpaceOnUse">
<stop stop-color="white"/>
<stop offset="1" stop-color="white" stop-opacity="0"/>
</linearGradient>
<linearGradient id="paint6_linear_3099_2623" x1="144.774" y1="99.9803" x2="162.447" y2="130.151" gradientUnits="userSpaceOnUse">
<stop stop-color="white"/>
<stop offset="1" stop-color="#8A8A8A"/>
</linearGradient>
<linearGradient id="paint7_linear_3099_2623" x1="145.604" y1="95.4603" x2="160.976" y2="131.254" gradientUnits="userSpaceOnUse">
<stop stop-color="white"/>
<stop offset="1" stop-color="white" stop-opacity="0"/>
</linearGradient>
</defs>
</svg>
