<svg width="120" height="120" viewBox="0 0 120 120" fill="none" xmlns="http://www.w3.org/2000/svg">
<g clip-path="url(#clip0_3130_2672)">
<path d="M19.594 59.0437C26.9395 59.6108 40.1295 61.5406 51.7633 65.573C67.969 55.6683 86.2705 51.0757 94.6258 49.6785C81.0692 51.2901 67.1529 48.0393 57.8361 44.2974C41.6166 52.21 24.1521 59.0298 19.6424 59.0506C19.6286 59.0506 19.6078 59.0506 19.594 59.0437Z" fill="url(#paint0_linear_3130_2672)"/>
<path d="M79.7773 -0.00374517C75.8694 4.83099 69.4369 11.6577 58.4048 18.353C45.9756 25.8991 28.2344 30.9759 22.2999 32.4492C20.9581 32.7812 19.9206 33.8602 19.6024 35.2366C18.2814 40.9359 17.313 48.5165 19.1874 58.6563C19.2289 58.8708 19.4019 59.016 19.6024 59.0368C19.6163 59.0368 19.637 59.0437 19.6509 59.0437C24.1605 59.0229 41.6486 52.2184 57.8681 44.3057C64.432 41.1033 70.8659 37.8548 75.987 34.5172C89.8956 25.4525 104.085 11.3579 107.063 -0.0175781H79.7773V-0.00374517Z" fill="#1B5FFD"/>
<path d="M99.2054 49.2495C99.0463 49.1734 98.4377 49.1872 97.4348 49.291C96.5079 49.45 95.5742 49.5745 94.6335 49.6852C86.2713 51.0824 67.9768 55.675 51.7711 65.5797C49.2326 67.129 46.7427 68.8097 44.3495 70.6357C26.0411 84.5866 16.0742 107.149 12.9341 120H28.9115H39.5632C43.2567 110.932 49.537 96.2273 63.3011 87.8789C77.7154 79.1294 91.6179 77.089 97.4348 75.0347C98.7282 74.5782 99.2953 73.1672 99.5167 71.6871C100.45 65.4275 100.471 49.8443 99.2054 49.2425V49.2495Z" fill="#1B5FFD"/>
</g>
<defs>
<linearGradient id="paint0_linear_3130_2672" x1="42.4272" y1="48.9477" x2="56.6048" y2="70.7672" gradientUnits="userSpaceOnUse">
<stop offset="0.0467545" stop-color="#001AA5"/>
<stop offset="0.515" stop-color="#004BFF"/>
</linearGradient>
<clipPath id="clip0_3130_2672">
<rect width="120" height="120" fill="white"/>
</clipPath>
</defs>
</svg>
