<svg width="280" height="87" viewBox="0 0 280 87" fill="none" xmlns="http://www.w3.org/2000/svg">
<path d="M0 84.8767V0.774995L60.3262 0.774414V13.5436L17.0905 13.5442C16.0669 13.5442 15.237 14.374 15.237 15.3977V35.2209H51.2552V47.9901H15.237L15.237 86.4965H0V84.8767Z" fill="black"/>
<path d="M67.3201 86.2781L67.3201 24.2104H82.3607V86.2781H67.3201Z" fill="black"/>
<path d="M68.6926 14.8658C70.4104 16.5865 72.4566 17.4427 74.8386 17.4427C77.2512 17.4427 79.305 16.5946 81.0076 14.8903C82.7101 13.186 83.5652 11.1311 83.5652 8.74177C83.5652 6.35247 82.7101 4.28936 81.0076 2.57689C79.305 0.856263 77.2207 0 74.8386 0C72.4566 0 70.4104 0.848084 68.6926 2.5524C66.9747 4.25671 66.1196 6.31166 66.1196 8.70096C66.1196 11.0903 66.9747 13.1534 68.6926 14.8658Z" fill="black"/>
<path d="M200.28 86.3452C180.605 86.3452 165.628 71.6305 165.628 53.5688C165.628 34.0537 180.483 20.4565 199.392 20.4565C218.302 20.4565 233.799 36.6792 232.331 57.3099H180.869L180.888 47.1709H218.454C215.166 38.0897 207.925 33.6227 200.28 33.6227C189.449 33.6227 183.576 40.4685 180.886 48.087L180.888 56.9358C182.723 67.1329 192.113 72.4015 199.877 72.4015C204.538 72.4015 211.419 70.7593 216.711 63.0496L228.679 68.0937C223.742 78.2005 212.495 86.3605 200.28 86.3605V86.3452Z" fill="black"/>
<path fill-rule="evenodd" clip-rule="evenodd" d="M260.323 42.8815C257.123 47.1581 256.194 52.3508 256.194 55.2302V86.5693H241.577V55.2302C241.577 50.0861 243.055 41.5598 248.621 34.1233C254.476 26.3004 264.273 20.4839 279.137 20.4839V35.1007C268.563 35.1007 263.235 38.9914 260.323 42.8815Z" fill="black"/>
<path d="M107.988 28.7646C112.79 23.7116 119.175 20.2207 126.9 20.2207C145.23 20.2207 160.089 35.0797 160.089 53.4092C160.089 71.7387 145.23 86.5976 126.9 86.5977C119.174 86.5977 112.79 83.1061 107.988 78.0527V86.3594H93.7139V0H107.988V28.7646ZM126.9 34.8369C116.748 34.8369 108.51 43.0477 108.51 53.4092C108.51 63.7706 116.748 71.9805 126.9 71.9805C137.157 71.9804 145.472 63.666 145.472 53.4092C145.472 43.1523 137.157 34.8369 126.9 34.8369Z" fill="black"/>
</svg>
